<svg xmlns="http://www.w3.org/2000/svg" viewBox="0 0 1600 900" width="1600" height="900" preserveAspectRatio="xMidYMid slice"><defs><linearGradient id="bg" x1="0" x2="1" y1="0" y2="1"><stop offset="0" stop-color="#080711"/><stop offset="0.48" stop-color="#171021"/><stop offset="1" stop-color="#07060c"/></linearGradient><radialGradient id="glow" cx="50%" cy="45%" r="52%"><stop offset="0" stop-color="#6f4ca8" stop-opacity="0.55"/><stop offset="0.48" stop-color="#28193a" stop-opacity="0.28"/><stop offset="1" stop-color="#000" stop-opacity="0"/></radialGradient><filter id="soft"><feGaussianBlur stdDeviation="1.2"/></filter></defs><rect width="1600" height="900" fill="url(#bg)"/><rect width="1600" height="900" fill="url(#glow)"/><g opacity="0.72"><path d="M0 0h1600v900H0z" fill="#020207" opacity="0.22"/><path d="M792 108c-114 92-171 223-171 392 0 174 59 301 177 383 122-82 183-209 183-383 0-167-63-298-189-392z" fill="#120d18" opacity="0.62"/><path d="M798 134c-86 81-129 200-129 357 0 157 43 273 129 349 91-76 137-192 137-349 0-155-46-274-137-357z" fill="#1a1323" opacity="0.50"/><circle cx="800" cy="460" r="236" fill="none" stroke="#7c54b3" stroke-opacity="0.22" stroke-width="3"/><circle cx="800" cy="460" r="168" fill="none" stroke="#d2a845" stroke-opacity="0.12" stroke-width="2"/><circle cx="800" cy="460" r="94" fill="none" stroke="#d2a845" stroke-opacity="0.10" stroke-width="2"/></g><g opacity="0.7" stroke-linecap="round"><path d="M145 190c62-35 124-53 188-53h83v629H95V256c14-26 31-48 50-66z" fill="#0b0a10" stroke="#2a2431" stroke-width="3"/><path d="M1185 137h83c64 0 126 18 188 53 19 18 36 40 50 66v510h-321V137z" fill="#0b0a10" stroke="#2a2431" stroke-width="3"/><path d="M215 250h145M215 310h145M215 370h145M215 430h145M1240 250h145M1240 310h145M1240 370h145M1240 430h145" stroke="#7e5c2b" stroke-opacity="0.45" stroke-width="5"/><path d="M132 788h350M1118 788h350" stroke="#4a3144" stroke-opacity="0.55" stroke-width="4"/><path d="M110 827h420M1070 827h420" stroke="#211d25" stroke-opacity="0.85" stroke-width="18"/></g><g opacity="0.62"><path d="M720 120h160l52 96v628H668V216z" fill="#100d16" stroke="#282131" stroke-width="4"/><path d="M740 165h120l38 72v570H702V237z" fill="#0b0a11" stroke="#332840" stroke-width="3"/><path d="M645 272h310M636 500h328M661 724h280" stroke="#342848" stroke-opacity="0.7" stroke-width="3"/><path d="M800 153v662" stroke="#6e4b9a" stroke-opacity="0.2" stroke-width="2"/></g><g opacity="0.55"><path d="M172 95c38 51 64 103 77 156M1428 95c-38 51-64 103-77 156" stroke="#2d2531" stroke-width="16"/><path d="M330 0c40 63 57 122 52 176M1270 0c-40 63-57 122-52 176" stroke="#211b25" stroke-width="11"/><path d="M740 0c10 58 15 109 14 154M860 0c-10 58-15 109-14 154" stroke="#2b2031" stroke-width="9"/></g><g opacity="0.65"><path d="M500 725c74 31 174 47 300 47s226-16 300-47" fill="none" stroke="#8b6c37" stroke-opacity="0.28" stroke-width="3"/><path d="M552 757c66 22 149 33 248 33s182-11 248-33" fill="none" stroke="#6f4ca8" stroke-opacity="0.25" stroke-width="2"/><path d="M800 696l44 44-44 44-44-44z" fill="none" stroke="#d2a845" stroke-opacity="0.23" stroke-width="2"/></g><g opacity="0.5"><circle cx="105" cy="604" r="12" fill="#b38438"/><circle cx="1510" cy="604" r="12" fill="#b38438"/><rect x="83" y="617" width="44" height="95" rx="12" fill="#241612"/><rect x="1488" y="617" width="44" height="95" rx="12" fill="#241612"/><path d="M96 644h18M1501 644h18" stroke="#ffd36c" stroke-opacity="0.5"/><path d="M173 700h120M1307 700h120" stroke="#9f6d2f" stroke-opacity="0.4" stroke-width="8"/></g><rect width="1600" height="900" fill="#000" opacity="0.15"/><rect width="1600" height="900" fill="none" stroke="#1b1423" stroke-width="8"/></svg>