<?xml version="1.0" encoding="UTF-8"?>
<svg xmlns="http://www.w3.org/2000/svg" viewBox="0 0 1536 2048" width="1536" height="2048" role="img" aria-label="Market Factor fantasy NPC portrait">
  <defs>
    <linearGradient id="bg" x1="0" y1="0" x2="0" y2="1"><stop offset="0" stop-color="#271630"/><stop offset="1" stop-color="#100d14"/></linearGradient>
    <radialGradient id="glow" cx="32%" cy="25%" r="68%"><stop offset="0" stop-color="#e7a74d" stop-opacity=".48"/><stop offset="1" stop-color="#e7a74d" stop-opacity="0"/></radialGradient>
    <filter id="soft"><feGaussianBlur stdDeviation="7"/></filter>
  </defs>
  <rect width="1536" height="2048" fill="url(#bg)"/><rect width="1536" height="2048" fill="url(#glow)"/>
  <g opacity=".16"><path d="M-200 150l520 -70" stroke="#fff" stroke-width="2"/><path d="M-90 360l520 -36" stroke="#fff" stroke-width="3"/><path d="M20 570l520 -2" stroke="#fff" stroke-width="4"/><path d="M130 780l520 32" stroke="#fff" stroke-width="2"/><path d="M240 990l520 66" stroke="#fff" stroke-width="3"/><path d="M350 1200l520 -70" stroke="#fff" stroke-width="4"/><path d="M460 1410l520 -36" stroke="#fff" stroke-width="2"/><path d="M570 150l520 -2" stroke="#fff" stroke-width="3"/><path d="M680 360l520 32" stroke="#fff" stroke-width="4"/><path d="M790 570l520 66" stroke="#fff" stroke-width="2"/><path d="M900 780l520 -70" stroke="#fff" stroke-width="3"/><path d="M1010 990l520 -36" stroke="#fff" stroke-width="4"/><path d="M1120 1200l520 -2" stroke="#fff" stroke-width="2"/><path d="M1230 1410l520 32" stroke="#fff" stroke-width="3"/><path d="M1340 150l520 66" stroke="#fff" stroke-width="4"/><path d="M1450 360l520 -70" stroke="#fff" stroke-width="2"/><path d="M1560 570l520 -36" stroke="#fff" stroke-width="3"/><path d="M1670 780l520 -2" stroke="#fff" stroke-width="4"/></g>
  
    <rect x="0" y="0" width="155" height="282" fill="#e2bd75" opacity=".78"/>
<rect x="155" y="0" width="155" height="282" fill="#8a2a32" opacity=".78"/>
<rect x="310" y="0" width="155" height="282" fill="#e2bd75" opacity=".78"/>
<rect x="465" y="0" width="155" height="282" fill="#8a2a32" opacity=".78"/>
<rect x="620" y="0" width="155" height="282" fill="#e2bd75" opacity=".78"/>
<rect x="775" y="0" width="155" height="282" fill="#8a2a32" opacity=".78"/>
<rect x="930" y="0" width="155" height="282" fill="#e2bd75" opacity=".78"/>
<rect x="1085" y="0" width="155" height="282" fill="#8a2a32" opacity=".78"/>
<rect x="1240" y="0" width="155" height="282" fill="#e2bd75" opacity=".78"/>
<rect x="1395" y="0" width="155" height="282" fill="#8a2a32" opacity=".78"/>
    <rect x="0" y="268" width="1536" height="44" fill="#4d2c1d" opacity=".9"/>
    <ellipse cx="95" cy="1500" rx="18" ry="11" fill="#dbae4b" stroke="#ffe5a0" stroke-width="2" opacity=".52"/>
<ellipse cx="208" cy="1547" rx="18" ry="11" fill="#dbae4b" stroke="#ffe5a0" stroke-width="2" opacity=".52"/>
<ellipse cx="321" cy="1594" rx="18" ry="11" fill="#dbae4b" stroke="#ffe5a0" stroke-width="2" opacity=".52"/>
<ellipse cx="434" cy="1641" rx="18" ry="11" fill="#dbae4b" stroke="#ffe5a0" stroke-width="2" opacity=".52"/>
<ellipse cx="547" cy="1688" rx="18" ry="11" fill="#dbae4b" stroke="#ffe5a0" stroke-width="2" opacity=".52"/>
<ellipse cx="660" cy="1735" rx="18" ry="11" fill="#dbae4b" stroke="#ffe5a0" stroke-width="2" opacity=".52"/>
<ellipse cx="773" cy="1782" rx="18" ry="11" fill="#dbae4b" stroke="#ffe5a0" stroke-width="2" opacity=".52"/>
<ellipse cx="886" cy="1829" rx="18" ry="11" fill="#dbae4b" stroke="#ffe5a0" stroke-width="2" opacity=".52"/>
<ellipse cx="999" cy="1546" rx="18" ry="11" fill="#dbae4b" stroke="#ffe5a0" stroke-width="2" opacity=".52"/>
<ellipse cx="1112" cy="1593" rx="18" ry="11" fill="#dbae4b" stroke="#ffe5a0" stroke-width="2" opacity=".52"/>
<ellipse cx="1225" cy="1640" rx="18" ry="11" fill="#dbae4b" stroke="#ffe5a0" stroke-width="2" opacity=".52"/>
<ellipse cx="1338" cy="1687" rx="18" ry="11" fill="#dbae4b" stroke="#ffe5a0" stroke-width="2" opacity=".52"/>
<ellipse cx="111" cy="1734" rx="18" ry="11" fill="#dbae4b" stroke="#ffe5a0" stroke-width="2" opacity=".52"/>
<ellipse cx="224" cy="1781" rx="18" ry="11" fill="#dbae4b" stroke="#ffe5a0" stroke-width="2" opacity=".52"/>
<ellipse cx="337" cy="1828" rx="18" ry="11" fill="#dbae4b" stroke="#ffe5a0" stroke-width="2" opacity=".52"/>
<ellipse cx="450" cy="1545" rx="18" ry="11" fill="#dbae4b" stroke="#ffe5a0" stroke-width="2" opacity=".52"/>
<ellipse cx="563" cy="1592" rx="18" ry="11" fill="#dbae4b" stroke="#ffe5a0" stroke-width="2" opacity=".52"/>
<ellipse cx="676" cy="1639" rx="18" ry="11" fill="#dbae4b" stroke="#ffe5a0" stroke-width="2" opacity=".52"/>
<ellipse cx="789" cy="1686" rx="18" ry="11" fill="#dbae4b" stroke="#ffe5a0" stroke-width="2" opacity=".52"/>
<ellipse cx="902" cy="1733" rx="18" ry="11" fill="#dbae4b" stroke="#ffe5a0" stroke-width="2" opacity=".52"/>
<ellipse cx="1015" cy="1780" rx="18" ry="11" fill="#dbae4b" stroke="#ffe5a0" stroke-width="2" opacity=".52"/>
<ellipse cx="1128" cy="1827" rx="18" ry="11" fill="#dbae4b" stroke="#ffe5a0" stroke-width="2" opacity=".52"/>
<ellipse cx="1241" cy="1544" rx="18" ry="11" fill="#dbae4b" stroke="#ffe5a0" stroke-width="2" opacity=".52"/>
<ellipse cx="1354" cy="1591" rx="18" ry="11" fill="#dbae4b" stroke="#ffe5a0" stroke-width="2" opacity=".52"/>
<ellipse cx="127" cy="1638" rx="18" ry="11" fill="#dbae4b" stroke="#ffe5a0" stroke-width="2" opacity=".52"/>
<ellipse cx="240" cy="1685" rx="18" ry="11" fill="#dbae4b" stroke="#ffe5a0" stroke-width="2" opacity=".52"/>
<ellipse cx="353" cy="1732" rx="18" ry="11" fill="#dbae4b" stroke="#ffe5a0" stroke-width="2" opacity=".52"/>
<ellipse cx="466" cy="1779" rx="18" ry="11" fill="#dbae4b" stroke="#ffe5a0" stroke-width="2" opacity=".52"/>
<ellipse cx="579" cy="1826" rx="18" ry="11" fill="#dbae4b" stroke="#ffe5a0" stroke-width="2" opacity=".52"/>
<ellipse cx="692" cy="1543" rx="18" ry="11" fill="#dbae4b" stroke="#ffe5a0" stroke-width="2" opacity=".52"/>
<ellipse cx="805" cy="1590" rx="18" ry="11" fill="#dbae4b" stroke="#ffe5a0" stroke-width="2" opacity=".52"/>
<ellipse cx="918" cy="1637" rx="18" ry="11" fill="#dbae4b" stroke="#ffe5a0" stroke-width="2" opacity=".52"/>
<ellipse cx="1031" cy="1684" rx="18" ry="11" fill="#dbae4b" stroke="#ffe5a0" stroke-width="2" opacity=".52"/>
<ellipse cx="1144" cy="1731" rx="18" ry="11" fill="#dbae4b" stroke="#ffe5a0" stroke-width="2" opacity=".52"/>
<ellipse cx="1257" cy="1778" rx="18" ry="11" fill="#dbae4b" stroke="#ffe5a0" stroke-width="2" opacity=".52"/>
<ellipse cx="1370" cy="1825" rx="18" ry="11" fill="#dbae4b" stroke="#ffe5a0" stroke-width="2" opacity=".52"/>
<ellipse cx="143" cy="1542" rx="18" ry="11" fill="#dbae4b" stroke="#ffe5a0" stroke-width="2" opacity=".52"/>
<ellipse cx="256" cy="1589" rx="18" ry="11" fill="#dbae4b" stroke="#ffe5a0" stroke-width="2" opacity=".52"/>
  <ellipse cx="768" cy="1515" rx="560" ry="485" fill="#05050a" opacity=".34"/>
  <ellipse cx="768" cy="1390" rx="690" ry="520" fill="#08070d" opacity=".46"/>
  <rect x="540.5" y="1054.4" width="455" height="436.8" rx="77.35000000000001" fill="#4b2a5f" stroke="#000" stroke-opacity=".35" stroke-width="10"/>
  <ellipse cx="768" cy="1285" rx="620" ry="340" fill="#08070d" opacity=".48"/>
  <path d="M566 1080h404l134 560H432z" fill="#4b2a5f" stroke="#000" stroke-opacity=".35" stroke-width="9"/>
  <path d="M575 1070l-20 570M961 1070l20 570" stroke="#eec06a" stroke-width="16" opacity=".86"/>
  <circle cx="768" cy="1168" r="62" fill="#eec06a" opacity=".92"/>
  
  <ellipse cx="590" cy="765" rx="52" ry="72" fill="#aa7652"/><ellipse cx="946" cy="765" rx="52" ry="72" fill="#aa7652"/>
  <rect x="668" y="905" width="200" height="250" rx="72" fill="#aa7652" stroke="#251918" stroke-opacity=".34" stroke-width="7"/>
  <ellipse cx="768" cy="732" rx="178" ry="226" fill="#aa7652" stroke="#251918" stroke-opacity=".42" stroke-width="9"/>
  <path d="M586 650q182-230 364 0q-8-148-182-202q-166 56-182 202z" fill="#2f1c15"/>
  
  <path d="M566 568h404l-70-120H636z" fill="#5a2e61" stroke="#ddb35c" stroke-width="7"/><rect x="515" y="560" width="506" height="74" rx="24" fill="#68326d" stroke="#ddb35c" stroke-width="7"/>
  <g>
    <path d="M654 720q44-28 92 0" stroke="#211614" stroke-width="14" stroke-linecap="round"/><path d="M790 720q48-28 92 0" stroke="#211614" stroke-width="14" stroke-linecap="round"/>
    <ellipse cx="698" cy="765" rx="42" ry="29" fill="#f2ead7"/><ellipse cx="838" cy="765" rx="42" ry="29" fill="#f2ead7"/>
    <circle cx="698" cy="768" r="15" fill="#141820"/><circle cx="838" cy="768" r="15" fill="#141820"/>
    <path d="M768 790l-34 95h68z" fill="#8c5a46" opacity=".42"/>
    <path d="M705 930q64 42 126 0" fill="none" stroke="#532922" stroke-width="9" stroke-linecap="round"/>
  </g>
  <path d="M614 840q154 142 308 0q-36 296-154 368q-118-72-154-368z" fill="#573426" opacity=".98"/><path d="M650 900q110 74 236 0" fill="none" stroke="#ffffff" stroke-width="7" opacity=".16"/>
  <rect x="44" y="44" width="1448" height="1960" rx="90" fill="none" stroke="#eec06a" stroke-width="12" opacity=".38"/>
  <rect x="74" y="74" width="1388" height="1900" rx="70" fill="none" stroke="#fff" stroke-width="3" opacity=".12"/>
</svg>